<svg xmlns="http://www.w3.org/2000/svg" viewBox="0 0 64 64">
  <rect width="64" height="64" rx="14" fill="#08636a" />
  <circle cx="26" cy="32" r="14" fill="none" stroke="#f7f5ef" stroke-width="7" />
  <path
    d="M39 16h5.5c7.1 0 11.5 3.8 11.5 9.8 0 3.8-1.9 6.7-5.2 8.4 4.1 1.5 6.7 4.8 6.7 9.6 0 6.7-4.8 10.2-12.4 10.2H39V16Zm7 15c2.6 0 4.2-1.5 4.2-4s-1.6-4-4.4-4H45v8h1Zm.6 16c3.1 0 4.9-1.6 4.9-4.5S49.7 38 46.4 38H45v9h1.6Z"
    fill="#f7f5ef"
  />
  <path d="M11 50h14" stroke="#aa5a3b" stroke-width="5" stroke-linecap="round" />
</svg>
